<svg xmlns="http://www.w3.org/2000/svg" width="65" height="65" viewBox="0 0 65 65" fill="none"><g clip-path="url(#clip0_12_347)"><path d="M8.71886 20.3731C5.61105 24.1918 5.61105 25.9084 8.71886 29.7271C10.5673 32.0021 10.6892 32.327 10.5368 35.3943C10.4455 37.1615 10.3541 38.9897 11.3899 40.4115C12.0126 41.2032 12.8526 41.7961 13.8071 42.1178L8.02825 55.961C7.41541 57.4314 8.11047 59.1203 9.58085 59.7332C10.2307 60.004 10.9574 60.0279 11.6236 59.8002L15.7572 58.3782C16.1519 58.2519 16.5804 58.4276 16.7729 58.7947L19.1799 63.4464C19.9267 64.8598 21.678 65.4002 23.0914 64.6535C23.6775 64.3438 24.1395 63.8424 24.4003 63.2331L30.494 48.7501C31.1427 48.4933 31.8286 48.3424 32.5253 48.3033C33.2216 48.3445 33.9071 48.4954 34.5565 48.7501L40.6503 63.2331C41.2735 64.7053 42.9719 65.3935 44.4441 64.7705C45.0619 64.509 45.5698 64.041 45.8807 63.4465L48.2877 58.7948C48.4806 58.4284 48.911 58.2561 49.3034 58.3886L53.3659 59.7901C54.871 60.312 56.5142 59.5148 57.036 58.0097C57.2685 57.3389 57.2456 56.606 56.9715 55.9511L51.1824 42.1282C54.3816 40.8689 54.6254 38.7258 54.4629 35.3945C54.3105 32.3476 54.4629 32.0124 56.2809 29.7374C59.3887 25.9187 59.3887 24.1921 56.2809 20.3732C54.4426 18.1084 54.3105 17.7834 54.4629 14.706C54.7067 9.94272 53.8231 8.61229 49.0698 7.32232C46.1347 6.53011 45.8502 6.30663 44.2354 3.81833C41.5442 -0.427065 39.9497 -0.711427 35.6231 0.933866C34.6599 1.37625 33.6306 1.6576 32.5762 1.76666C31.5011 1.66454 30.4506 1.38306 29.4684 0.933866C25.091 -0.721639 23.4863 -0.416984 20.7542 3.81833C19.1393 6.31684 18.8652 6.53011 15.93 7.32232C11.248 8.58166 10.2932 9.88171 10.537 14.7161C10.6892 17.7629 10.5673 18.0981 8.71886 20.3731ZM22.5519 62.4407C22.3648 62.8793 21.8578 63.0832 21.4192 62.8961C21.2393 62.8194 21.0908 62.6839 20.998 62.5118L18.5909 57.8907C17.9337 56.6232 16.4481 56.0273 15.0971 56.4892L10.9635 57.8907C10.5164 58.0204 10.0488 57.763 9.91902 57.3159C9.86613 57.1337 9.87634 56.939 9.94783 56.7633L15.808 42.7475H15.9807C18.9158 43.5295 19.1901 43.7632 20.8049 46.2515C22.7753 49.2984 24.2682 50.832 27.9143 49.6844L22.5519 62.4407ZM55.1538 56.7329C55.3528 57.16 55.168 57.6676 54.741 57.8666C54.532 57.964 54.2927 57.9726 54.0772 57.8907L50.0147 56.4892C48.6459 55.9968 47.1243 56.5968 46.4599 57.8907L44.0529 62.5423C43.8266 62.9619 43.303 63.1187 42.8833 62.8924C42.7111 62.7996 42.5757 62.6511 42.499 62.4712L37.177 49.7657C40.7927 50.8931 42.2552 49.4407 44.2865 46.3328C45.9115 43.8343 46.1858 43.6109 49.1107 42.8288H49.2935L55.1538 56.7329ZM12.5682 14.6043C12.3752 10.7754 12.7104 10.2878 16.4582 9.28235C19.8606 8.36825 20.5207 7.87062 22.4605 4.91506C24.6035 1.60405 25.1824 1.49238 28.6966 2.88381C29.9002 3.45319 31.198 3.79738 32.5255 3.8995C33.8497 3.79608 35.1437 3.45188 36.3443 2.88381C39.8685 1.54318 40.4067 1.66506 42.5803 4.96586C44.4796 7.90099 45.16 8.40884 48.5929 9.33315C52.3304 10.3488 52.6554 10.816 52.4828 14.6551C52.3001 18.2403 52.5945 19.0427 54.7579 21.7037C57.2359 24.7506 57.2462 25.4513 54.7579 28.4982C52.5945 31.149 52.3001 31.9615 52.4828 35.5468C52.6758 39.3655 52.3507 39.8633 48.5929 40.8688C45.16 41.7929 44.5304 42.3008 42.5803 45.2258C40.4475 48.5469 39.8585 48.6587 36.3443 47.3181C35.1437 46.7502 33.8495 46.406 32.5254 46.3024C31.201 46.3884 29.9034 46.7153 28.6965 47.2673C25.1925 48.5977 24.634 48.5064 22.4604 45.175C20.5611 42.2399 19.8807 41.7321 16.458 40.818C15.0158 40.432 13.6549 40.0664 13.0354 39.2133C12.4158 38.3602 12.4869 36.9688 12.5682 35.496C12.751 31.9209 12.4666 31.1186 10.2932 28.4474C7.8049 25.4005 7.8049 24.7099 10.2932 21.6529C12.4564 18.9919 12.751 18.1896 12.5682 14.6043Z" fill="#082363"/><path d="M32.5254 43.2047C42.5547 43.2047 50.6849 35.0743 50.6849 25.0452C50.6849 15.0159 42.5545 6.8857 32.5254 6.8857C22.4961 6.8857 14.3659 15.0161 14.3659 25.0452C14.3659 25.0486 14.3659 25.052 14.3659 25.0554C14.4104 35.0644 22.5163 43.1657 32.5254 43.2047ZM32.5254 8.92703C41.4328 8.92703 48.6536 16.1479 48.6536 25.0553C48.6536 33.9627 41.4328 41.1835 32.5254 41.1835C23.618 41.1835 16.3972 33.9627 16.3972 25.0553C16.4083 16.1525 23.6226 8.93816 32.5254 8.92703Z" fill="#082363"/><path d="M26.5027 28.0006L25.416 34.257C25.3179 34.8092 25.6861 35.3364 26.2383 35.4346C26.4603 35.474 26.689 35.4385 26.8886 35.3335L32.5254 32.378L38.1418 35.3335C38.6315 35.607 39.2502 35.4319 39.5238 34.9421C39.6401 34.7338 39.6795 34.4913 39.6348 34.257L38.5583 28.0006L43.1185 23.5724C43.5219 23.1827 43.5329 22.5397 43.1431 22.1364C42.9847 21.9723 42.7757 21.8665 42.5498 21.8358L36.2529 20.9116L33.4396 15.2342C33.1894 14.7321 32.5796 14.528 32.0776 14.7782C31.8802 14.8766 31.7201 15.0366 31.6216 15.2342L28.8084 20.9319L22.5115 21.8561C21.9557 21.9317 21.5665 22.4436 21.6421 22.9994C21.6729 23.2254 21.7788 23.4343 21.9427 23.5927L26.5027 28.0006ZM29.6309 22.8411C29.949 22.8046 30.2314 22.6201 30.3926 22.3435L32.5254 17.9559L34.6582 22.3435C34.8074 22.6398 35.0917 22.8444 35.4199 22.8919L40.2138 23.5927L36.7505 26.9138C36.5087 27.1478 36.3983 27.4862 36.4559 27.8177L37.2684 32.5708L33.0027 30.3263C32.707 30.171 32.3539 30.171 32.0581 30.3263L27.7824 32.581L28.5949 27.8177C28.6525 27.4862 28.5422 27.1477 28.3003 26.9138L24.837 23.5419L29.6309 22.8411Z" fill="#082363"/></g><defs><clipPath id="clip0_12_347"><rect width="65" height="65" fill="white"/></clipPath></defs><script xmlns=""/></svg>