<svg xmlns="http://www.w3.org/2000/svg" width="65" height="65" viewBox="0 0 65 65" fill="none"><path d="M64.9982 17.3249C64.9952 17.1999 64.9703 17.0763 64.9245 16.96C64.9124 16.9274 64.8992 16.8975 64.8841 16.8664C64.8384 16.7704 64.7786 16.6818 64.7069 16.6034C64.6943 16.5897 64.6857 16.5736 64.6723 16.5607C64.5976 16.4864 64.5121 16.4235 64.4191 16.374L41.6691 4.45732C41.357 4.29355 40.9848 4.29203 40.6715 4.45313L0.588174 25.0363C0.493086 25.0862 0.406123 25.1499 0.329951 25.2256C0.314844 25.2403 0.304814 25.2582 0.290596 25.2737C0.220391 25.3508 0.161738 25.4377 0.11667 25.5317C0.101689 25.5624 0.0879785 25.5918 0.075918 25.6242C0.0286914 25.7425 0.00291992 25.8685 0 25.9959L0.000380859 25.9985L0 26.0001V47.6668C0 48.0698 0.223691 48.4396 0.580811 48.6263L23.3308 60.5431C23.3766 60.5641 23.4237 60.582 23.4721 60.5964C23.5013 60.6068 23.5291 60.6213 23.5589 60.6291C23.6481 60.6533 23.7399 60.6659 23.8321 60.6667L23.8327 60.6666L23.8332 60.6667L23.8344 60.6663C23.9912 60.6632 24.1455 60.626 24.2864 60.5573C24.2997 60.5512 24.3151 60.5538 24.3283 60.5471L64.4116 39.9638C64.7728 39.7782 64.9999 39.4061 64.9997 39V17.3334L64.9982 17.3249ZM22.75 57.7931L2.16671 47.0114V27.7903L22.75 38.572V57.7931ZM23.8381 36.6964L3.43624 26.0096L41.1619 6.63711L61.5638 17.3239L23.8381 36.6964ZM62.8333 38.3383L24.9167 57.8092V38.5785L62.8334 19.1077V38.3383H62.8333Z" fill="#082363"/><path d="M21.6667 23.8334C17.9612 23.8334 15.1667 25.4637 15.1667 27.6251C15.1667 29.7865 17.9613 31.4168 21.6667 31.4168C25.3721 31.4168 28.1667 29.7865 28.1667 27.6251C28.1667 25.4637 25.3721 23.8334 21.6667 23.8334ZM21.6667 29.2501C18.9785 29.2501 17.3334 28.1981 17.3334 27.6251C17.3334 27.0522 18.9785 26.0001 21.6667 26.0001C24.355 26.0001 26 27.0522 26 27.6251C26 28.1981 24.355 29.2501 21.6667 29.2501Z" fill="#082363"/><path d="M33.0417 17.8751C29.3362 17.8751 26.5417 19.5055 26.5417 21.6668C26.5417 23.8282 29.3363 25.4585 33.0417 25.4585C36.7471 25.4585 39.5417 23.8282 39.5417 21.6668C39.5417 19.5055 36.7471 17.8751 33.0417 17.8751ZM33.0417 23.2917C30.3535 23.2917 28.7084 22.2396 28.7084 21.6667C28.7084 21.0939 30.3535 20.0417 33.0417 20.0417C35.7299 20.0417 37.375 21.0939 37.375 21.6667C37.375 22.2396 35.7299 23.2917 33.0417 23.2917Z" fill="#082363"/><path d="M44.4167 11.9167C40.7112 11.9167 37.9167 13.547 37.9167 15.7084C37.9167 17.8698 40.7113 19.5001 44.4167 19.5001C48.1221 19.5001 50.9167 17.8698 50.9167 15.7084C50.9167 13.547 48.1221 11.9167 44.4167 11.9167ZM44.4167 17.3334C41.7285 17.3334 40.0834 16.2814 40.0834 15.7084C40.0834 15.1355 41.7285 14.0834 44.4167 14.0834C47.1049 14.0834 48.75 15.1355 48.75 15.7084C48.75 16.2814 47.1049 17.3334 44.4167 17.3334Z" fill="#082363"/><script xmlns=""/></svg>