<svg xmlns="http://www.w3.org/2000/svg" width="65" height="65" viewBox="0 0 65 65" fill="none"><path d="M64.0479 63.0957H60.9294V50.0084C61.5526 49.4604 61.947 48.6582 61.947 47.7651C61.947 46.1178 60.6068 44.7776 58.9596 44.7776H52.7304L51.7684 29.3876C51.7371 28.8858 51.3209 28.4949 50.8182 28.4949H46.7474C46.2447 28.4949 45.8286 28.8858 45.7972 29.3876L44.8353 44.7776H42.5535L41.5916 29.3876C41.5603 28.8858 41.1441 28.4949 40.6414 28.4949H36.5708C36.068 28.4949 35.6519 28.8858 35.6205 29.3876L34.6586 44.7776H32.3769L31.4149 29.3876C31.3836 28.8858 30.9674 28.4949 30.4647 28.4949H26.3941C25.8913 28.4949 25.4752 28.8858 25.4438 29.3876L24.4819 44.7776H21.8298L21.24 18.2315C21.2286 17.714 20.8057 17.3005 20.2881 17.3005H14.1821C13.6645 17.3005 13.2416 17.714 13.2302 18.2315L12.5498 48.8484H5.02277C3.37543 48.8484 2.03531 50.1886 2.03531 51.8358C2.03531 52.729 2.42976 53.5312 3.05297 54.0791V63.0957H0.952148C0.426309 63.0957 0 63.522 0 64.0479C0 64.5737 0.426309 65 0.952148 65H64.0479C64.5737 65 65 64.5737 65 64.0479C65 63.522 64.5737 63.0957 64.0479 63.0957ZM12.4591 52.9191H9.09391C8.56807 52.9191 8.14176 53.3455 8.14176 53.8713C8.14176 54.3971 8.56807 54.8234 9.09391 54.8234H12.4168L12.2329 63.0957H4.95727V54.8217C4.9791 54.8222 5.00081 54.8233 5.02277 54.8233C5.54861 54.8233 5.97492 54.397 5.97492 53.8712C5.97492 53.3453 5.54861 52.919 5.02277 52.919C4.42546 52.919 3.93961 52.433 3.93961 51.8358C3.93961 51.2385 4.42559 50.7527 5.02277 50.7527H12.5072L12.4591 52.9191ZM47.6418 30.3992H49.9236L50.8223 44.7776H46.7433L47.6418 30.3992ZM37.4651 30.3992H39.7469L40.6456 44.7776H36.5666L37.4651 30.3992ZM27.2884 30.3992H29.5702L30.4688 44.7776H26.3897L27.2884 30.3992ZM16.2829 63.0957H14.1379L15.113 19.2047H19.3567L19.925 44.7776H18.2527C16.6053 44.7776 15.2651 46.1179 15.2651 47.7651C15.2651 48.6582 15.6595 49.4604 16.2829 50.0084V63.0957ZM58.9596 48.8483H56.9243C56.3984 48.8483 55.9721 49.2746 55.9721 49.8004C55.9721 50.3262 56.3984 50.7526 56.9243 50.7526H58.9596C58.9815 50.7526 59.0032 50.7513 59.0251 50.7509V63.0957H18.187V50.7509C18.2089 50.7514 18.2306 50.7526 18.2526 50.7526H52.8543C53.3801 50.7526 53.8064 50.3262 53.8064 49.8004C53.8064 49.2746 53.3801 48.8483 52.8543 48.8483H18.2526C17.6552 48.8483 17.1693 48.3623 17.1693 47.7651C17.1693 47.1679 17.6552 46.6819 18.2526 46.6819H58.9594C59.5568 46.6819 60.0427 47.1678 60.0427 47.7651C60.0427 48.3624 59.5568 48.8483 58.9596 48.8483Z" fill="#FF5100"/><path d="M52.8535 0C49.9851 0 47.2505 1.00103 45.0645 2.83537C43.4951 1.65775 41.5931 1.01766 39.6237 1.01766C37.2329 1.01766 34.9506 1.96155 33.2541 3.63035C32.3747 3.25114 31.4234 3.05297 30.4647 3.05297C27.6339 3.05297 25.1104 4.74792 24.0029 7.28457C23.6208 7.17755 23.2295 7.12359 22.8321 7.12359C20.8652 7.12359 19.1738 8.40265 18.5697 10.1943C18.4644 10.1827 18.3585 10.1767 18.2525 10.1767C16.6052 10.1767 15.265 11.5169 15.265 13.1642C15.2651 13.6901 15.6914 14.1164 16.2172 14.1164C16.7431 14.1164 17.1694 13.6901 17.1694 13.1643C17.1694 12.567 17.6554 12.0811 18.2527 12.0811C18.4416 12.0811 18.6268 12.1346 18.803 12.2401C19.0884 12.4108 19.4421 12.4202 19.7362 12.2652C20.0303 12.1101 20.2222 11.8127 20.2423 11.4808C20.3257 10.1055 21.4633 9.02814 22.832 9.02814C23.2648 9.02814 23.692 9.14507 24.1015 9.37574C24.3581 9.52034 24.6675 9.53786 24.939 9.42322C25.2106 9.30858 25.4136 9.07474 25.4891 8.78985C26.0869 6.53339 28.1329 4.95739 30.4645 4.95739C31.3481 4.95739 32.2235 5.18845 32.9959 5.62542C33.3907 5.84886 33.8887 5.76266 34.1853 5.41912C35.5559 3.83221 37.5381 2.92208 39.6236 2.92208C41.4066 2.92208 43.121 3.5877 44.4507 4.79616C44.8218 5.13335 45.3908 5.1251 45.7519 4.77712C47.6739 2.92449 50.196 1.9043 52.8535 1.9043C58.5011 1.9043 63.0957 6.49898 63.0957 12.1465C63.0957 17.794 58.5011 22.3887 52.8535 22.3887C49.1039 22.3887 45.657 20.3414 43.858 17.0459C43.618 16.6064 43.0786 16.4279 42.6239 16.6373C41.6689 17.0772 40.6595 17.3003 39.6237 17.3003C37.5382 17.3003 35.556 16.3902 34.1854 14.8032C33.8889 14.4598 33.3909 14.3735 32.996 14.5969C32.2236 15.0339 31.3483 15.265 30.4647 15.265C28.8557 15.265 27.3668 14.5283 26.38 13.2437C26.2007 13.0105 25.9238 12.8732 25.6297 12.8717C25.628 12.8717 25.6265 12.8717 25.625 12.8717C25.3326 12.8717 25.0562 13.0061 24.8757 13.2363C24.3719 13.8788 23.6271 14.2472 22.8321 14.2472C22.3063 14.2472 21.88 14.6735 21.88 15.1993C21.88 15.7252 22.3063 16.1515 22.8321 16.1515C23.8413 16.1515 24.801 15.8143 25.5831 15.2026C26.8895 16.463 28.6189 17.1691 30.4647 17.1691C31.4234 17.1691 32.3747 16.971 33.2541 16.5919C34.9506 18.2607 37.2331 19.2046 39.6237 19.2046C40.6499 19.2046 41.6546 19.0323 42.6207 18.6917C44.8454 22.167 48.6921 24.293 52.8535 24.293C59.5512 24.293 65 18.844 65 12.1465C65 5.44896 59.5512 0 52.8535 0Z" fill="#FF5100"/><path d="M24.3586 52.919C23.8328 52.919 23.4065 53.3453 23.4065 53.8712V55.9065C23.4065 56.4323 23.8328 56.8586 24.3586 56.8586C24.8845 56.8586 25.3108 56.4323 25.3108 55.9065V53.8712C25.3108 53.3453 24.8845 52.919 24.3586 52.919Z" fill="#FF5100"/><path d="M28.4294 52.919C27.9035 52.919 27.4772 53.3453 27.4772 53.8712V55.9065C27.4772 56.4323 27.9035 56.8586 28.4294 56.8586C28.9552 56.8586 29.3815 56.4323 29.3815 55.9065V53.8712C29.3815 53.3453 28.9552 52.919 28.4294 52.919Z" fill="#FF5100"/><path d="M32.5 52.919C31.9742 52.919 31.5479 53.3453 31.5479 53.8712V55.9065C31.5479 56.4323 31.9742 56.8586 32.5 56.8586C33.0258 56.8586 33.4521 56.4323 33.4521 55.9065V53.8712C33.4521 53.3453 33.0258 52.919 32.5 52.919Z" fill="#FF5100"/><path d="M36.5706 52.919C36.0448 52.919 35.6185 53.3453 35.6185 53.8712V55.9065C35.6185 56.4323 36.0448 56.8586 36.5706 56.8586C37.0965 56.8586 37.5228 56.4323 37.5228 55.9065V53.8712C37.5228 53.3453 37.0966 52.919 36.5706 52.919Z" fill="#FF5100"/><path d="M40.6414 52.919C40.1155 52.919 39.6892 53.3453 39.6892 53.8712V55.9065C39.6892 56.4323 40.1155 56.8586 40.6414 56.8586C41.1672 56.8586 41.5935 56.4323 41.5935 55.9065V53.8712C41.5935 53.3453 41.1672 52.919 40.6414 52.919Z" fill="#FF5100"/><path d="M44.712 52.919C44.1861 52.919 43.7598 53.3453 43.7598 53.8712V55.9065C43.7598 56.4323 44.1861 56.8586 44.712 56.8586C45.2378 56.8586 45.6641 56.4323 45.6641 55.9065V53.8712C45.6641 53.3453 45.2378 52.919 44.712 52.919Z" fill="#FF5100"/><path d="M48.7828 52.919C48.2569 52.919 47.8306 53.3453 47.8306 53.8712V55.9065C47.8306 56.4323 48.2569 56.8586 48.7828 56.8586C49.3086 56.8586 49.7349 56.4323 49.7349 55.9065V53.8712C49.7349 53.3453 49.3086 52.919 48.7828 52.919Z" fill="#FF5100"/><path d="M52.8535 52.919C52.3277 52.919 51.9014 53.3453 51.9014 53.8712V55.9065C51.9014 56.4323 52.3277 56.8586 52.8535 56.8586C53.3794 56.8586 53.8057 56.4323 53.8057 55.9065V53.8712C53.8057 53.3453 53.3794 52.919 52.8535 52.919Z" fill="#FF5100"/><script xmlns=""/></svg>