<svg xmlns="http://www.w3.org/2000/svg" width="65" height="65" viewBox="0 0 65 65" fill="none"><path d="M32.7307 41.3568C27.8693 41.3568 23.9142 37.3739 23.9142 32.479C23.9142 27.5836 27.8693 23.6008 32.7307 23.6008C37.592 23.6008 41.5471 27.5836 41.5471 32.479C41.5471 37.3739 37.592 41.3568 32.7307 41.3568ZM32.7307 25.6975C29.0251 25.6975 26.011 28.7394 26.011 32.479C26.011 36.2181 29.0251 39.26 32.7307 39.26C36.4362 39.26 39.4503 36.2181 39.4503 32.479C39.4503 28.74 36.4362 25.6975 32.7307 25.6975Z" fill="#082363"/><path d="M35.3742 54.6781H30.0871C29.5079 54.6781 29.0382 54.209 29.0382 53.6297V49.8199C26.9588 49.3706 24.9563 48.5346 23.1652 47.3672L20.497 50.0552C20.0939 50.4615 19.4114 50.4615 19.0078 50.0552L15.2698 46.2889C14.864 45.88 14.864 45.2211 15.2698 44.8123L17.9468 42.1153C16.7842 40.3073 15.9512 38.286 15.5057 36.1872H11.7336C11.1543 36.1872 10.6846 35.718 10.6846 35.1388V29.8119C10.6846 29.2332 11.1543 28.7635 11.7336 28.7635H15.5057C15.9517 26.6647 16.7842 24.6434 17.9468 22.8354L15.2698 20.1385C14.864 19.7296 14.864 19.0707 15.2698 18.6618L19.0078 14.8955C19.4015 14.4987 20.1028 14.4987 20.497 14.8955L23.1652 17.5835C24.9563 16.4162 26.9588 15.5801 29.0382 15.1308V11.321C29.0382 10.7423 29.5079 10.2726 30.0871 10.2726H35.3742C35.9534 10.2726 36.4231 10.7418 36.4231 11.321V15.1308C38.5025 15.5801 40.505 16.4162 42.2961 17.5835L44.9643 14.8955C45.3579 14.4987 46.0593 14.4987 46.4535 14.8955L50.1915 18.6618C50.5973 19.0707 50.5973 19.7296 50.1915 20.1385L47.5145 22.8354C48.6771 24.6434 49.5101 26.6647 49.9557 28.7635H53.7277C54.307 28.7635 54.7767 29.2327 54.7767 29.8119V35.1383C54.7767 35.717 54.307 36.1867 53.7277 36.1867H49.9557C49.5096 38.2855 48.6771 40.3068 47.5145 42.1148L50.1915 44.8117C50.5973 45.2206 50.5973 45.8795 50.1915 46.2884L46.4535 50.0547C46.0598 50.4515 45.3585 50.4515 44.9643 50.0547L42.2961 47.3667C40.505 48.534 38.5025 49.3701 36.4231 49.8194V53.6292C36.4225 54.2084 35.9534 54.6781 35.3742 54.6781ZM31.1361 52.5813H34.3258V48.9513C34.3258 48.4371 34.699 47.9983 35.2069 47.9165C37.5721 47.5344 39.8544 46.5809 41.8055 45.1598C42.2238 44.8558 42.8025 44.9008 43.1673 45.2683L45.7081 47.8285L47.969 45.5503L45.4167 42.9786C45.056 42.6154 45.0104 42.045 45.3092 41.6294C46.7214 39.6615 47.6681 37.3598 48.0481 34.9737C48.1288 34.4647 48.5681 34.0904 49.0839 34.0904H52.6788V30.8603H49.0839C48.5681 30.8603 48.1294 30.4855 48.0481 29.9771C47.6686 27.5909 46.7214 25.2897 45.3092 23.3214C45.0109 22.9057 45.056 22.3354 45.4167 21.9721L47.969 19.4004L45.7081 17.1223L43.1673 19.6824C42.8025 20.0509 42.2238 20.0965 41.8055 19.7909C39.8539 18.3693 37.5721 17.4163 35.2069 17.0342C34.699 16.9519 34.3258 16.5137 34.3258 15.9994V12.3694H31.1361V15.9994C31.1361 16.5137 30.7628 16.9524 30.2549 17.0342C27.8897 17.4163 25.6074 18.3698 23.6563 19.7909C23.238 20.096 22.6598 20.0504 22.2945 19.6824L19.7537 17.1223L17.4929 19.4004L20.0452 21.9721C20.4058 22.3354 20.4514 22.9057 20.1526 23.3214C18.7405 25.2897 17.7932 27.5909 17.4137 29.9771C17.333 30.486 16.8937 30.8603 16.3779 30.8603H12.783V34.0904H16.3779C16.8937 34.0904 17.3325 34.4652 17.4137 34.9737C17.7938 37.3603 18.7405 39.6615 20.1526 41.6294C20.4509 42.045 20.4058 42.6154 20.0452 42.9786L17.4929 45.5503L19.7537 47.8285L22.2945 45.2683C22.6598 44.9008 23.2386 44.8547 23.6563 45.1598C25.6079 46.5814 27.8897 47.5344 30.2549 47.9165C30.7628 47.9988 31.1361 48.4371 31.1361 48.9513V52.5813Z" fill="#082363"/><path d="M61.0167 11.136C61.0051 9.79141 58.9084 9.79927 58.9194 11.1527L58.9309 12.5702C52.6338 4.95101 42.5504 0 32.8769 0C22.8711 0 13.6117 4.55367 7.47396 12.4942C6.64888 13.5625 8.30585 14.8452 9.13355 13.7763C14.8714 6.35375 23.5253 2.09677 32.8769 2.09677C42.2925 2.09677 52.1263 7.10544 57.9695 14.7251H55.0686C53.7183 14.7251 53.7157 16.8219 55.0686 16.8219H60.005C60.5774 16.8219 61.0586 16.3375 61.0539 15.7651L61.0167 11.136Z" fill="#082363"/><path d="M65 32.2127C65 28.231 64.2839 24.3435 62.8718 20.659C62.389 19.3983 60.4296 20.1458 60.9134 21.4091C62.2333 24.8536 62.9027 28.4883 62.9027 32.2127C62.9027 43.9196 54.882 55.1588 43.4556 59.9892L44.2645 58.7312C44.9947 57.5958 43.2318 56.4609 42.5 57.5979L39.9991 61.4884C39.6579 62.0189 39.8764 62.7538 40.452 63.0112L44.6655 64.9004C45.9 65.4539 46.756 63.5396 45.5236 62.9876L43.6894 62.1652C56.1794 57.1523 65 44.9444 65 32.2127Z" fill="#082363"/><path d="M34.1203 62.3036C33.7083 62.3203 33.2936 62.3287 32.8774 62.3287C16.3213 62.3287 2.85214 48.8187 2.85214 32.2127C2.85214 29.272 4.06617 25.599 5.22307 22.4979L6.14513 24.5721C6.69343 25.804 8.61146 24.9569 8.06158 23.7203L6.10634 19.3228C5.86678 18.7834 5.20001 18.5465 4.67214 18.8144L0.556699 20.9096C-0.646325 21.5223 0.302465 23.3895 1.50863 22.7778L3.20178 21.916C2.00138 25.1456 0.75432 28.98 0.75432 32.2127C0.75432 49.975 15.1644 64.4255 32.8769 64.4255C33.3219 64.4255 33.7649 64.4166 34.2052 64.3988C35.554 64.3432 35.4738 62.2517 34.1203 62.3036C34.7063 62.281 33.7077 62.3209 34.1203 62.3036Z" fill="#082363"/><script xmlns=""/></svg>